<mxfile host="app.diagrams.net" agent="Mozilla/5.0 (Windows NT 10.0; Win64; x64) AppleWebKit/537.36 (KHTML, like Gecko) Chrome/129.0.0.0 Safari/537.36" version="24.7.17">
  <diagram name="Page-1" id="rdlpU-q-iZ4AOSr6TDgU">
    <mxGraphModel dx="794" dy="454" grid="1" gridSize="10" guides="1" tooltips="1" connect="1" arrows="1" fold="1" page="1" pageScale="1" pageWidth="850" pageHeight="1100" math="0" shadow="0">
      <root>
        <mxCell id="0" />
        <mxCell id="1" parent="0" />
        <mxCell id="IjWypcXBANwT1gj18dvC-4" value="" style="endArrow=classic;html=1;rounded=0;exitX=0.5;exitY=1;exitDx=0;exitDy=0;" parent="1" edge="1" source="IjWypcXBANwT1gj18dvC-7">
          <mxGeometry width="50" height="50" relative="1" as="geometry">
            <mxPoint x="410" y="170" as="sourcePoint" />
            <mxPoint x="410" y="240" as="targetPoint" />
          </mxGeometry>
        </mxCell>
        <mxCell id="IjWypcXBANwT1gj18dvC-8" value="" style="endArrow=classic;html=1;rounded=0;" parent="1" edge="1">
          <mxGeometry width="50" height="50" relative="1" as="geometry">
            <mxPoint x="409.5" y="450" as="sourcePoint" />
            <mxPoint x="409.5" y="530" as="targetPoint" />
            <Array as="points" />
          </mxGeometry>
        </mxCell>
        <mxCell id="IjWypcXBANwT1gj18dvC-10" value="start" style="strokeWidth=2;html=1;shape=mxgraph.flowchart.start_2;whiteSpace=wrap;fontStyle=1" parent="1" vertex="1">
          <mxGeometry x="340" y="10" width="140" height="100" as="geometry" />
        </mxCell>
        <mxCell id="IjWypcXBANwT1gj18dvC-15" value="display number" style="strokeWidth=2;html=1;shape=mxgraph.flowchart.display;whiteSpace=wrap;" parent="1" vertex="1">
          <mxGeometry x="340" y="380" width="130" height="70" as="geometry" />
        </mxCell>
        <mxCell id="IjWypcXBANwT1gj18dvC-18" value="decrement" style="rounded=0;whiteSpace=wrap;html=1;" parent="1" vertex="1">
          <mxGeometry x="345" y="530" width="130" height="90" as="geometry" />
        </mxCell>
        <mxCell id="IjWypcXBANwT1gj18dvC-19" value="check condition ya/tidak" style="rhombus;whiteSpace=wrap;html=1;" parent="1" vertex="1">
          <mxGeometry x="352.5" y="700" width="115" height="120" as="geometry" />
        </mxCell>
        <mxCell id="IjWypcXBANwT1gj18dvC-20" value="" style="endArrow=classic;html=1;rounded=0;" parent="1" edge="1">
          <mxGeometry width="50" height="50" relative="1" as="geometry">
            <mxPoint x="409.5" y="620" as="sourcePoint" />
            <mxPoint x="409.5" y="700" as="targetPoint" />
          </mxGeometry>
        </mxCell>
        <mxCell id="IjWypcXBANwT1gj18dvC-21" value="end" style="strokeWidth=2;html=1;shape=mxgraph.flowchart.start_2;whiteSpace=wrap;" parent="1" vertex="1">
          <mxGeometry x="340" y="900" width="140" height="100" as="geometry" />
        </mxCell>
        <mxCell id="IjWypcXBANwT1gj18dvC-22" value="" style="endArrow=classic;html=1;rounded=0;" parent="1" edge="1">
          <mxGeometry width="50" height="50" relative="1" as="geometry">
            <mxPoint x="409.5" y="820" as="sourcePoint" />
            <mxPoint x="409.5" y="900" as="targetPoint" />
            <Array as="points">
              <mxPoint x="410" y="900" />
            </Array>
          </mxGeometry>
        </mxCell>
        <mxCell id="IjWypcXBANwT1gj18dvC-24" value="" style="endArrow=classic;html=1;rounded=0;exitX=0.5;exitY=1;exitDx=0;exitDy=0;verticalAlign=middle;" parent="1" source="IjWypcXBANwT1gj18dvC-7" edge="1">
          <mxGeometry width="50" height="50" relative="1" as="geometry">
            <mxPoint x="390" y="460" as="sourcePoint" />
            <mxPoint x="410" y="380" as="targetPoint" />
          </mxGeometry>
        </mxCell>
        <mxCell id="5GiKag5fQVcmgvYGfdWN-1" value="" style="endArrow=classic;html=1;rounded=0;exitX=0.5;exitY=1;exitDx=0;exitDy=0;" edge="1" parent="1" target="IjWypcXBANwT1gj18dvC-7">
          <mxGeometry width="50" height="50" relative="1" as="geometry">
            <mxPoint x="410" y="170" as="sourcePoint" />
            <mxPoint x="410" y="240" as="targetPoint" />
            <Array as="points">
              <mxPoint x="410" y="120" />
            </Array>
          </mxGeometry>
        </mxCell>
        <mxCell id="IjWypcXBANwT1gj18dvC-7" value="&#xa;&lt;span style=&quot;color: rgb(0, 0, 0); font-family: Helvetica; font-size: 12px; font-style: normal; font-variant-ligatures: normal; font-variant-caps: normal; font-weight: 400; letter-spacing: normal; orphans: 2; text-align: center; text-indent: 0px; text-transform: none; widows: 2; word-spacing: 0px; -webkit-text-stroke-width: 0px; white-space: nowrap; background-color: rgb(251, 251, 251); text-decoration-thickness: initial; text-decoration-style: initial; text-decoration-color: initial; display: inline !important; float: none;&quot;&gt;&amp;nbsp;Inisialisasi: |&lt;/span&gt;&lt;br style=&quot;forced-color-adjust: none; color: rgb(0, 0, 0); font-family: Helvetica; font-size: 12px; font-style: normal; font-variant-ligatures: normal; font-variant-caps: normal; font-weight: 400; letter-spacing: normal; orphans: 2; text-align: center; text-indent: 0px; text-transform: none; widows: 2; word-spacing: 0px; -webkit-text-stroke-width: 0px; white-space: nowrap; background-color: rgb(251, 251, 251); text-decoration-thickness: initial; text-decoration-style: initial; text-decoration-color: initial;&quot;&gt;&lt;span style=&quot;color: rgb(0, 0, 0); font-family: Helvetica; font-size: 12px; font-style: normal; font-variant-ligatures: normal; font-variant-caps: normal; font-weight: 400; letter-spacing: normal; orphans: 2; text-align: center; text-indent: 0px; text-transform: none; widows: 2; word-spacing: 0px; -webkit-text-stroke-width: 0px; white-space: nowrap; background-color: rgb(251, 251, 251); text-decoration-thickness: initial; text-decoration-style: initial; text-decoration-color: initial; display: inline !important; float: none;&quot;&gt;| counter = 20&lt;/span&gt;&#xa;&#xa;" style="verticalLabelPosition=middle;verticalAlign=middle;html=1;shape=hexagon;perimeter=hexagonPerimeter2;arcSize=6;size=0.27;labelPosition=center;align=center;" parent="1" vertex="1">
          <mxGeometry x="340" y="190" width="140" height="100" as="geometry" />
        </mxCell>
      </root>
    </mxGraphModel>
  </diagram>
</mxfile>
